<svg width="400" height="400" viewBox="0 0 400 400" fill="none" xmlns="http://www.w3.org/2000/svg">
<g clip-path="url(#clip0_456_2)">
<path d="M109.04 230.337C135.473 214.826 164.926 205.897 164.926 205.897C164.926 205.897 110.172 243.032 102.302 248.992C94.2314 255.104 47.4899 296.611 47.4899 296.611C47.4899 296.611 96.294 256.566 115.159 245.188C134.023 233.81 156.306 222.86 172.466 216.269C225.947 194.457 265.172 183.036 280.442 179.194C309.934 171.108 350.134 161.668 364.916 159.588C387.99 156.343 387.677 149.6 387.677 149.6C387.677 149.6 386.885 144.212 364.135 142.731C350.141 143.238 321.795 145.81 301.925 150.621C278.335 157.174 256.468 160.388 210.978 177.436C164.341 193.254 119.5 218.298 114.065 221.587C96.1056 232.455 33.1733 277.895 11.3129 301.064C44.1365 271.116 88.8076 242.21 109.04 230.337Z" fill="url(#paint0_linear_456_2)"/>
<path fill-rule="evenodd" clip-rule="evenodd" d="M27.6774 235.274C20.2506 226.473 23.0915 201.966 93.8699 174.343C110.873 167.708 125.839 166.441 139.3 168.608C128.511 169.264 111.234 173.31 98.5642 178.684C57.5352 196.086 22.9833 230.774 44.0304 253.248C40.1636 250.064 35.2046 244.157 31.4232 239.652C29.9517 237.9 28.6585 236.359 27.6774 235.274ZM174.307 282.837C202.083 267.985 219.94 248.08 232.448 227.455C236.685 220.469 240.308 213.399 243.495 206.416C247.986 196.577 252.131 186.251 256.101 176.363C262.348 160.805 268.159 146.331 274.194 136.541C287.966 114.2 300.448 109.686 307.933 106.978C309.607 106.373 311.03 105.858 312.163 105.254C296.588 113.556 287.334 138.199 276.666 166.606C268.38 188.67 259.242 213.004 245.627 233.717C232.889 253.095 216.232 269.303 192.689 277.514C186.451 279.689 180.321 281.451 174.307 282.837ZM321.128 204.084C360.131 172.398 387.49 126.338 339.267 105.749C337.486 104.989 335.748 104.387 334.056 103.923C354.165 112.551 373.727 154.347 321.128 204.084Z" fill="white"/>
<path d="M139.3 168.608C125.839 166.441 110.873 167.708 93.8699 174.343C23.0915 201.966 20.2506 226.473 27.6774 235.274C28.6585 236.359 29.9517 237.9 31.4232 239.652C35.2046 244.157 40.1636 250.064 44.0304 253.248M139.3 168.608C128.511 169.264 111.234 173.31 98.5642 178.684C57.5352 196.086 22.9833 230.774 44.0304 253.248M139.3 168.608C178.837 174.971 205.393 210.945 232.448 227.455M44.0304 253.248C70.8969 275.368 117.349 295.961 174.307 282.837M312.163 105.254C317.79 102.832 325.304 101.523 334.056 103.923M312.163 105.254C311.03 105.858 309.607 106.373 307.933 106.978C300.448 109.686 287.966 114.2 274.194 136.541C268.159 146.331 262.348 160.805 256.101 176.363C252.131 186.251 247.986 196.577 243.495 206.416C240.308 213.399 236.685 220.469 232.448 227.455M312.163 105.254C296.588 113.556 287.334 138.199 276.666 166.606C268.38 188.67 259.242 213.004 245.627 233.717M174.307 282.837C180.321 281.451 186.451 279.689 192.689 277.514C216.232 269.303 232.889 253.095 245.627 233.717M174.307 282.837C202.083 267.985 219.94 248.08 232.448 227.455M334.056 103.923C335.748 104.387 337.486 104.989 339.267 105.749C387.49 126.338 360.131 172.398 321.128 204.084M334.056 103.923C354.165 112.551 373.727 154.347 321.128 204.084M321.128 204.084C304.134 217.892 284.928 228.97 268.802 234.022C260.706 236.559 253.069 236.136 245.627 233.717M232.448 227.455C236.809 230.117 241.183 232.272 245.627 233.717" stroke="white"/>
<mask id="mask0_456_2" style="mask-type:alpha" maskUnits="userSpaceOnUse" x="147" y="170" width="86" height="56">
<rect x="147.939" y="175.466" width="82" height="50" transform="rotate(-3.48116 147.939 175.466)" fill="#C4C4C4"/>
</mask>
<g mask="url(#mask0_456_2)">
<path d="M109.04 230.337C135.473 214.826 164.926 205.897 164.926 205.897C164.926 205.897 110.172 243.032 102.302 248.992C94.2314 255.104 47.4899 296.611 47.4899 296.611C47.4899 296.611 96.294 256.566 115.159 245.188C134.023 233.81 156.306 222.86 172.466 216.269C225.947 194.457 265.172 183.036 280.442 179.194C309.934 171.108 350.134 161.668 364.916 159.588C387.99 156.343 387.677 149.6 387.677 149.6C387.677 149.6 386.885 144.212 364.135 142.731C350.141 143.238 321.795 145.81 301.925 150.621C278.335 157.174 256.468 160.388 210.978 177.436C164.341 193.254 119.5 218.298 114.065 221.587C96.1056 232.455 33.1733 277.895 11.3129 301.064C44.1365 271.116 88.8076 242.21 109.04 230.337Z" fill="url(#paint1_linear_456_2)"/>
</g>
<mask id="mask1_456_2" style="mask-type:alpha" maskUnits="userSpaceOnUse" x="298" y="123" width="107" height="72">
<rect x="298.41" y="129.244" width="102" height="65" transform="rotate(-3.48116 298.41 129.244)" fill="#C4C4C4"/>
</mask>
<g mask="url(#mask1_456_2)">
<path d="M109.04 230.337C135.473 214.826 164.926 205.897 164.926 205.897C164.926 205.897 110.172 243.032 102.302 248.992C94.2314 255.104 47.4899 296.611 47.4899 296.611C47.4899 296.611 96.294 256.566 115.159 245.188C134.023 233.81 156.306 222.86 172.466 216.269C225.947 194.457 265.172 183.036 280.442 179.194C309.934 171.108 350.134 161.668 364.916 159.588C387.99 156.343 387.677 149.6 387.677 149.6C387.677 149.6 386.885 144.212 364.135 142.731C350.141 143.238 321.795 145.81 301.925 150.621C278.335 157.174 256.468 160.388 210.978 177.436C164.341 193.254 119.5 218.298 114.065 221.587C96.1056 232.455 33.1733 277.895 11.3129 301.064C44.1365 271.116 88.8076 242.21 109.04 230.337Z" fill="url(#paint2_linear_456_2)"/>
</g>
</g>
<defs>
<linearGradient id="paint0_linear_456_2" x1="254.603" y1="84.5736" x2="159.758" y2="357.829" gradientUnits="userSpaceOnUse">
<stop stop-color="#47BCFF"/>
<stop offset="0.240625" stop-color="#C1AEC0"/>
<stop offset="0.5375" stop-color="#ED6C82"/>
</linearGradient>
<linearGradient id="paint1_linear_456_2" x1="254.603" y1="84.5736" x2="159.758" y2="357.829" gradientUnits="userSpaceOnUse">
<stop stop-color="#47BCFF"/>
<stop offset="0.240625" stop-color="#C1AEC0"/>
<stop offset="0.5375" stop-color="#ED6C82"/>
</linearGradient>
<linearGradient id="paint2_linear_456_2" x1="254.603" y1="84.5736" x2="159.758" y2="357.829" gradientUnits="userSpaceOnUse">
<stop stop-color="#47BCFF"/>
<stop offset="0.240625" stop-color="#C1AEC0"/>
<stop offset="0.5375" stop-color="#ED6C82"/>
</linearGradient>
<clipPath id="clip0_456_2">
<rect width="400" height="400" fill="white"/>
</clipPath>
</defs>
</svg>
